<svg width="297" height="88" viewBox="0 0 297 88" fill="none" xmlns="http://www.w3.org/2000/svg">
<rect width="297" height="88" rx="10" fill="url(#paint0_linear_49_2)" fill-opacity="0.75"/>
<path d="M38.0341 61V26.0909H61.1477V32.1761H45.4148V40.4943H59.6136V46.5795H45.4148V61H38.0341ZM73.1136 61.4943C71.4432 61.4943 69.9545 61.2045 68.6477 60.625C67.3409 60.0341 66.3068 59.1648 65.5455 58.017C64.7955 56.858 64.4205 55.4148 64.4205 53.6875C64.4205 52.233 64.6875 51.0114 65.2216 50.0227C65.7557 49.0341 66.483 48.2386 67.4034 47.6364C68.3239 47.0341 69.3693 46.5795 70.5398 46.2727C71.7216 45.9659 72.9602 45.75 74.2557 45.625C75.7784 45.4659 77.0057 45.3182 77.9375 45.1818C78.8693 45.0341 79.5455 44.8182 79.9659 44.5341C80.3864 44.25 80.5966 43.8295 80.5966 43.2727V43.1705C80.5966 42.0909 80.2557 41.2557 79.5739 40.6648C78.9034 40.0739 77.9489 39.7784 76.7102 39.7784C75.4034 39.7784 74.3636 40.0682 73.5909 40.6477C72.8182 41.2159 72.3068 41.9318 72.0568 42.7955L65.3409 42.25C65.6818 40.6591 66.3523 39.2841 67.3523 38.125C68.3523 36.9545 69.642 36.0568 71.2216 35.4318C72.8125 34.7955 74.6534 34.4773 76.7443 34.4773C78.1989 34.4773 79.5909 34.6477 80.9205 34.9886C82.2614 35.3295 83.4489 35.858 84.483 36.5739C85.5284 37.2898 86.3523 38.2102 86.9545 39.3352C87.5568 40.4489 87.858 41.7841 87.858 43.3409V61H80.9716V57.3693H80.767C80.3466 58.1875 79.7841 58.9091 79.0795 59.5341C78.375 60.1477 77.5284 60.6307 76.5398 60.983C75.5511 61.3239 74.4091 61.4943 73.1136 61.4943ZM75.1932 56.483C76.2614 56.483 77.2045 56.2727 78.0227 55.8523C78.8409 55.4205 79.483 54.8409 79.9489 54.1136C80.4148 53.3864 80.6477 52.5625 80.6477 51.642V48.8636C80.4205 49.0114 80.108 49.1477 79.7102 49.2727C79.3239 49.3864 78.8864 49.4943 78.3977 49.5966C77.9091 49.6875 77.4205 49.7727 76.9318 49.8523C76.4432 49.9205 76 49.983 75.6023 50.0398C74.75 50.1648 74.0057 50.3636 73.3693 50.6364C72.733 50.9091 72.2386 51.2784 71.8864 51.7443C71.5341 52.1989 71.358 52.767 71.358 53.4489C71.358 54.4375 71.7159 55.1932 72.4318 55.7159C73.1591 56.2273 74.0795 56.483 75.1932 56.483ZM115.276 42.2841L108.628 42.6932C108.514 42.125 108.27 41.6136 107.895 41.1591C107.52 40.6932 107.026 40.3239 106.412 40.0511C105.81 39.767 105.088 39.625 104.247 39.625C103.122 39.625 102.173 39.8636 101.401 40.3409C100.628 40.8068 100.241 41.4318 100.241 42.2159C100.241 42.8409 100.491 43.3693 100.991 43.8011C101.491 44.233 102.349 44.5795 103.565 44.8409L108.304 45.7955C110.849 46.3182 112.747 47.1591 113.997 48.3182C115.247 49.4773 115.872 51 115.872 52.8864C115.872 54.6023 115.366 56.108 114.355 57.4034C113.355 58.6989 111.98 59.7102 110.23 60.4375C108.491 61.1534 106.486 61.5114 104.213 61.5114C100.747 61.5114 97.9858 60.7898 95.929 59.3466C93.8835 57.892 92.6847 55.9148 92.3324 53.4148L99.4744 53.0398C99.6903 54.0966 100.213 54.9034 101.043 55.4602C101.872 56.0057 102.935 56.2784 104.23 56.2784C105.503 56.2784 106.526 56.0341 107.298 55.5455C108.082 55.0455 108.48 54.4034 108.491 53.6193C108.48 52.9602 108.202 52.4205 107.656 52C107.111 51.5682 106.27 51.2386 105.134 51.0114L100.599 50.108C98.0426 49.5966 96.1392 48.7102 94.8892 47.4489C93.6506 46.1875 93.0312 44.5795 93.0312 42.625C93.0312 40.9432 93.4858 39.4943 94.3949 38.2784C95.3153 37.0625 96.6051 36.125 98.2642 35.4659C99.9347 34.8068 101.889 34.4773 104.128 34.4773C107.435 34.4773 110.037 35.1761 111.935 36.5739C113.844 37.9716 114.957 39.875 115.276 42.2841ZM127.706 45.8636V61H120.445V26.0909H127.501V39.4375H127.808C128.399 37.892 129.354 36.6818 130.672 35.8068C131.99 34.9205 133.643 34.4773 135.632 34.4773C137.45 34.4773 139.036 34.875 140.388 35.6705C141.751 36.4545 142.808 37.5852 143.558 39.0625C144.32 40.5284 144.695 42.2841 144.683 44.3295V61H137.422V45.625C137.433 44.0114 137.024 42.7557 136.195 41.858C135.376 40.9602 134.229 40.5114 132.751 40.5114C131.763 40.5114 130.888 40.7216 130.126 41.142C129.376 41.5625 128.786 42.1761 128.354 42.983C127.933 43.7784 127.717 44.7386 127.706 45.8636ZM150.398 61V34.8182H157.659V61H150.398ZM154.045 31.4432C152.966 31.4432 152.04 31.0852 151.267 30.3693C150.506 29.642 150.125 28.7727 150.125 27.7614C150.125 26.7614 150.506 25.9034 151.267 25.1875C152.04 24.4602 152.966 24.0966 154.045 24.0966C155.125 24.0966 156.045 24.4602 156.807 25.1875C157.58 25.9034 157.966 26.7614 157.966 27.7614C157.966 28.7727 157.58 29.642 156.807 30.3693C156.045 31.0852 155.125 31.4432 154.045 31.4432ZM175.305 61.5114C172.658 61.5114 170.368 60.9489 168.436 59.8239C166.516 58.6875 165.033 57.108 163.987 55.0852C162.942 53.0511 162.419 50.6932 162.419 48.0114C162.419 45.3068 162.942 42.9432 163.987 40.9205C165.033 38.8864 166.516 37.3068 168.436 36.1818C170.368 35.0455 172.658 34.4773 175.305 34.4773C177.953 34.4773 180.237 35.0455 182.158 36.1818C184.089 37.3068 185.578 38.8864 186.624 40.9205C187.669 42.9432 188.192 45.3068 188.192 48.0114C188.192 50.6932 187.669 53.0511 186.624 55.0852C185.578 57.108 184.089 58.6875 182.158 59.8239C180.237 60.9489 177.953 61.5114 175.305 61.5114ZM175.339 55.8864C176.544 55.8864 177.55 55.5455 178.357 54.8636C179.163 54.1705 179.771 53.2273 180.18 52.0341C180.601 50.8409 180.811 49.483 180.811 47.9602C180.811 46.4375 180.601 45.0795 180.18 43.8864C179.771 42.6932 179.163 41.75 178.357 41.0568C177.55 40.3636 176.544 40.017 175.339 40.017C174.124 40.017 173.101 40.3636 172.271 41.0568C171.453 41.75 170.834 42.6932 170.413 43.8864C170.004 45.0795 169.8 46.4375 169.8 47.9602C169.8 49.483 170.004 50.8409 170.413 52.0341C170.834 53.2273 171.453 54.1705 172.271 54.8636C173.101 55.5455 174.124 55.8864 175.339 55.8864ZM200.175 45.8636V61H192.913V34.8182H199.834V39.4375H200.141C200.72 37.9148 201.692 36.7102 203.055 35.8239C204.419 34.9261 206.072 34.4773 208.016 34.4773C209.834 34.4773 211.419 34.875 212.771 35.6705C214.124 36.4659 215.175 37.6023 215.925 39.0795C216.675 40.5455 217.05 42.2955 217.05 44.3295V61H209.788V45.625C209.8 44.0227 209.391 42.7727 208.561 41.875C207.732 40.9659 206.589 40.5114 205.135 40.5114C204.158 40.5114 203.294 40.7216 202.544 41.142C201.805 41.5625 201.226 42.1761 200.805 42.983C200.396 43.7784 200.186 44.7386 200.175 45.8636ZM230.034 26.0909V61H222.773V26.0909H230.034ZM240.334 70.8182C239.413 70.8182 238.55 70.7443 237.743 70.5966C236.947 70.4602 236.288 70.2841 235.766 70.0682L237.402 64.6477C238.254 64.9091 239.021 65.0511 239.703 65.0739C240.396 65.0966 240.993 64.9375 241.493 64.5966C242.004 64.2557 242.419 63.6761 242.737 62.858L243.163 61.75L233.771 34.8182H241.408L246.828 54.0455H247.101L252.572 34.8182H260.26L250.084 63.8295C249.595 65.2386 248.93 66.4659 248.089 67.5114C247.26 68.5682 246.209 69.3807 244.936 69.9489C243.663 70.5284 242.129 70.8182 240.334 70.8182Z" fill="white"/>
<defs>
<linearGradient id="paint0_linear_49_2" x1="54.2348" y1="2.41096" x2="67.7139" y2="110.678" gradientUnits="userSpaceOnUse">
<stop stop-color="#D92323"/>
<stop offset="0.847778" stop-color="#FF9900"/>
</linearGradient>
</defs>
</svg>
